<?xml version="1.0" encoding="UTF-8"?>
<svg xmlns="http://www.w3.org/2000/svg" xmlns:xlink="http://www.w3.org/1999/xlink" version="1.1" id="Layer_1" x="0px" y="0px" viewBox="0 0 450 450" style="enable-background:new 0 0 450 450;" xml:space="preserve" width="512" height="512">
<g>
	<path fill="#2F4399" d="M444.3,434c0.3-0.7,0.5-1.5,0.5-2.2V137c0-2.7-2.3-5-5-5h-85.9c-5.7-66.2-61.4-118.3-129.1-118.3S101.4,65.8,95.7,132h-86   c-2.7,0-5,2.3-5,5v294.7c0,2.7,2.3,5,5,5h430.1C441.7,436.7,443.4,435.6,444.3,434z M14.7,149.7l138.1,147L14.7,420.5V149.7z    M159.7,303.9l61.4,65.3c0.9,1,2.3,1.6,3.6,1.6c1.4,0,2.7-0.6,3.6-1.6l61.4-65.3l136.9,122.8h-404L159.7,303.9z M296.7,296.6   l138.1-147v270.9L296.7,296.6z M224.8,23.7c65.9,0,119.6,53.6,119.6,119.6c0,65.9-53.6,119.6-119.6,119.6s-119.6-53.6-119.6-119.6   C105.2,77.4,158.8,23.7,224.8,23.7z M224.8,272.9c71.5,0,129.6-58.1,129.6-129.6c0-0.4,0-0.9,0-1.3h73.9L224.8,358.6L21.3,142h73.9   c0,0.4,0,0.9,0,1.3C95.2,214.8,153.3,272.9,224.8,272.9z"></path>
	<path fill="#2F4399" d="M178.9,235.6h91.7c9.7,0,17.5-7.9,17.5-17.5V152c0-9.5-7.7-17.3-17.2-17.5v-41c0-11.3-4.4-22-12.5-30   c-8-8-18.7-12.5-30-12.5H221c-11.3,0-22,4.4-30,12.5c-8,8-12.5,18.7-12.5,30v41c-9.5,0.2-17.2,8-17.2,17.5v66.1   C161.4,227.8,169.2,235.6,178.9,235.6z M198.1,70.6c6.1-6.2,14.3-9.5,22.9-9.5h7.5c8.6,0,16.8,3.4,22.9,9.5   c6.2,6.2,9.5,14.3,9.5,22.9v41h-7v-41c0-6.8-2.7-13.2-7.5-18s-11.2-7.5-18-7.5H221c-6.8,0-13.2,2.7-18,7.5s-7.5,11.2-7.5,18v41h-7   v-41C188.5,84.9,191.9,76.7,198.1,70.6z M205.5,134.5v-41c0-4.1,1.6-8,4.6-10.9c2.9-2.9,6.8-4.6,10.9-4.6h7.5c4.1,0,8,1.6,10.9,4.6   c2.9,2.9,4.6,6.8,4.6,10.9v41H205.5z M171.4,152c0-4.2,3.4-7.5,7.5-7.5h91.7c4.2,0,7.5,3.4,7.5,7.5v66.1c0,4.2-3.4,7.5-7.5,7.5   h-91.7c-4.2,0-7.5-3.4-7.5-7.5L171.4,152L171.4,152z"></path>
	<path fill="#2F4399" d="M224.8,205.5c11.3,0,20.5-9.2,20.5-20.5s-9.2-20.5-20.5-20.5s-20.5,9.2-20.5,20.5C204.3,196.3,213.5,205.5,224.8,205.5z    M224.8,174.6c5.8,0,10.5,4.7,10.5,10.5s-4.7,10.5-10.5,10.5s-10.5-4.7-10.5-10.5C214.3,179.3,219,174.6,224.8,174.6z"></path>
</g>
</svg>
